<svg version="1.1" xmlns="http://www.w3.org/2000/svg" x="0" y="0" viewBox="0 0 1220 168" xml:space="preserve"><circle cx="83.9" cy="84.1" r="83.9"/><path d="M205.55 14.46V.1h119.69c10.53 0 17.87 4.79 22.02 14.36H205.55zM205.55 33.61V19.25H348.7c0 .48.04.92.12 1.32.08.4.12.76.12 1.08.16.48.24 1.28.24 2.39v9.58H205.55zM205.55 38.4h35.91v14.36h-35.91zM349.18 67.12c0 1.12-.08 1.91-.24 2.39 0 .32-.04.68-.12 1.08-.08.4-.12.84-.12 1.32H205.55V57.55h143.62v9.57zM347.26 76.7c-4.15 9.57-11.49 14.36-22.02 14.36H205.55V76.7h141.71zM205.55 95.84h35.91v14.36h-35.91zM205.55 114.99h35.91v14.36h-35.91zM205.55 134.14h35.91v14.36h-35.91zM205.55 153.29h35.91v14.36h-35.91zM313.27 38.4h35.91v14.36h-35.91zM360.67 14.46V.1h35.91v14.36h-35.91zm0 19.15V19.25h35.91v14.36h-35.91zm0 19.15V38.4h35.91v14.36h-35.91zm0 19.15V57.55h143.62v14.36H360.67zm0 19.15V76.7h143.62v14.36H360.67zm0 19.15V95.84h35.91v14.36h-35.91zm0 19.15V115h35.91v14.36h-35.91zm0 19.15v-14.36h35.91v14.36h-35.91zm0 19.15V153.3h35.91v14.36h-35.91zm107.71-153.2V.1h35.91v14.36h-35.91zm0 19.15V19.25h35.91v14.36h-35.91zm0 19.15V38.4h35.91v14.36h-35.91zm0 57.45V95.84h35.91v14.36h-35.91zm0 19.15V115h35.91v14.36h-35.91zm0 19.15v-14.36h35.91v14.36h-35.91zm0 19.15V153.3h35.91v14.36h-35.91zM523.92 14.46V.1h35.91v14.36h-35.91zm0 19.15V19.25h35.91v14.36h-35.91zm0 19.15V38.4h35.91v14.36h-35.91zm0 19.15V57.55h35.91v14.36h-35.91zm0 19.15V76.7h35.91v14.36h-35.91zm0 19.15V95.84h35.91v14.36h-35.91zm0 19.15V115h35.91v14.36h-35.91zm0 19.15v-14.36h35.91v14.36h-35.91zm0 19.15V153.3h35.91v14.36h-35.91zM577.77 14.46V.1H721.4v14.36H577.77zm0 19.15V19.25H721.4v14.36H577.77zm0 114.9v-14.36H721.4v14.36H577.77zm0 19.15V153.3H721.4v14.36H577.77zm56.97-38.3h-52.66L595.01 115h52.66l-12.93 14.36zm17.24-19.15h-52.66l13.17-14.36h52.66l-13.17 14.36zm17.47-19.15h-52.66l12.93-14.36h52.66l-12.93 14.36zm17.24-19.15h-52.66l13.17-14.36h52.66l-13.17 14.36zm17.47-19.15H651.5l12.93-14.36h52.66l-12.93 14.36zM773.81 167.66h-40.69l5.74-14.36h40.69l-5.74 14.36zm7.66-19.15h-40.69l5.74-14.36h40.69l-5.74 14.36zm-33.03-19.15l5.74-14.36h137.4l5.74 14.36H748.44zm7.66-19.15l5.74-14.36h122.08l5.74 14.36H756.1zm48.35-19.15h-40.69l5.74-14.36h40.69l-5.74 14.36zm7.66-19.15h-40.69l5.74-14.36h40.69l-5.74 14.36zM826 52.76l-3.11-7.9-3.11 7.9h-40.69l5.74-14.36h76.12l5.74 14.36H826zm-39.26-19.15l5.74-14.36h60.8l5.74 14.36h-72.28zm7.66-19.15L800.14.1h45.48l5.74 14.36H794.4zm39.26 57.45l-5.74-14.36h40.69l5.74 14.36h-40.69zm7.66 19.15l-5.74-14.36h40.69l5.74 14.36h-40.69zm22.98 57.45l-5.75-14.36h40.69l5.74 14.36H864.3zm7.66 19.15l-5.74-14.36h40.69l5.74 14.36h-40.69zM926.29 33.61v-9.58c0-1.11.08-1.91.24-2.39 0-.32.04-.68.12-1.08.08-.4.12-.84.12-1.32h143.14V33.6H926.29zm0 19.15V38.4h35.91v14.36h-35.91zm0 19.15V57.55h35.91v14.36h-35.91zm0 19.15V76.7h35.91v14.36h-35.91zm0 19.15V95.84h35.91v14.36h-35.91zm0 19.15V115h35.91v14.36h-35.91zm.48 19.15c0-.48-.04-.92-.12-1.32-.08-.4-.12-.75-.12-1.08-.16-.48-.24-1.28-.24-2.39v-9.57h143.62v14.36H926.77zm1.44-134.05C932.2 4.89 939.54.1 950.23.1h119.69v14.36H928.21zm22.02 153.2c-10.69 0-18.04-4.79-22.02-14.36h141.71v14.36H950.23zm35.91-95.75V57.55h83.78v14.36h-83.78zm0 19.15V76.7h83.78v14.36h-83.78zm47.87 19.15V95.84h35.91v14.36h-35.91zm0 19.15V115h35.91v14.36h-35.91zM1088.35 33.61v-9.58c0-1.11.08-1.91.24-2.39 0-.32.04-.68.12-1.08.08-.4.12-.84.12-1.32H1220V33.6h-131.65zm0 19.15V38.4h35.91v14.36h-35.91zm0 19.15V57.55H1220v14.36h-131.65zm0 19.15V76.7H1220v14.36h-131.65zm0 19.15V95.84h35.91v14.36h-35.91zm0 19.15V115h35.91v14.36h-35.91zm.47 19.15c0-.48-.04-.92-.12-1.32-.08-.4-.12-.75-.12-1.08-.16-.48-.24-1.28-.24-2.39v-9.57H1220v14.36h-131.18zm1.44-134.05C1094.25 4.89 1101.59.1 1112.28.1H1220v14.36h-129.74zm22.02 153.2c-10.69 0-18.04-4.79-22.02-14.36H1220v14.36h-107.72z"/></svg>